<?xml version="1.0" standalone="no"?>
<!DOCTYPE svg PUBLIC "-//W3C//DTD SVG 20010904//EN"
 "http://www.w3.org/TR/2001/REC-SVG-20010904/DTD/svg10.dtd">
<svg version="1.0" xmlns="http://www.w3.org/2000/svg"
 width="980.000000pt" height="980.000000pt" viewBox="0 0 980.000000 980.000000"
 preserveAspectRatio="xMidYMid meet">
<metadata>
Created by potrace 1.11, written by Peter Selinger 2001-2013
</metadata>
<g transform="translate(0.000000,980.000000) scale(0.100000,-0.100000)"
fill="#000000" stroke="none">
<path d="M4515 9789 c-1163 -92 -2252 -595 -3080 -1424 -837 -836 -1334 -1919
-1425 -3104 -13 -173 -13 -549 0 -722 122 -1581 974 -2980 2325 -3817 181
-112 550 -298 735 -371 608 -240 1185 -351 1829 -351 353 0 650 29 976 95
1477 300 2740 1269 3413 2621 438 878 599 1846 471 2834 -68 535 -231 1059
-485 1560 -244 485 -533 881 -924 1270 -831 826 -1911 1319 -3089 1410 -157
12 -587 11 -746 -1z m1305 -1829 c743 -67 1382 -385 1818 -905 417 -497 553
-1143 361 -1717 -129 -386 -409 -738 -778 -978 l-81 -53 0 -86 c0 -260 141
-512 418 -750 34 -30 62 -62 62 -72 0 -42 -142 -76 -274 -65 -270 23 -571 144
-829 335 l-56 41 65 102 c178 280 302 621 345 948 16 119 16 408 0 520 -36
250 -94 446 -200 665 -288 598 -823 1041 -1535 1270 -330 107 -767 161 -1096
136 -74 -5 -136 -8 -138 -6 -7 7 172 149 278 219 451 300 1063 447 1640 396z
m-1350 -1041 c578 -53 1107 -290 1478 -659 299 -299 474 -650 523 -1053 16
-136 7 -373 -21 -511 -146 -734 -742 -1356 -1562 -1630 -346 -115 -777 -168
-1124 -137 l-131 12 -94 -92 c-356 -346 -773 -549 -1129 -551 -138 0 -230 25
-230 65 0 6 55 62 122 126 67 64 148 151 180 195 118 158 178 325 178 492 l0
93 -90 60 c-323 216 -577 509 -710 820 -100 231 -142 432 -142 681 -1 289 55
525 188 793 350 708 1127 1203 2034 1296 123 12 397 13 530 0z"/>
</g>
</svg>
